<?xml version="1.0" standalone="no"?>
<!DOCTYPE svg PUBLIC "-//W3C//DTD SVG 20010904//EN"
 "http://www.w3.org/TR/2001/REC-SVG-20010904/DTD/svg10.dtd">
<svg version="1.0" xmlns="http://www.w3.org/2000/svg"
 width="700.000000pt" height="700.000000pt" viewBox="0 0 700.000000 700.000000"
 preserveAspectRatio="xMidYMid meet">
<metadata>
Created by potrace 1.14, written by Peter Selinger 2001-2017
</metadata>
<g transform="translate(0.000000,700.000000) scale(0.100000,-0.100000)"
fill="#000000" stroke="none">
<path d="M1170 6985 c-401 -68 -748 -301 -968 -650 -70 -113 -139 -284 -179
-448 -16 -67 -18 -215 -21 -2337 -2 -1607 0 -2288 8 -2345 83 -607 559 -1092
1169 -1191 128 -21 4514 -21 4642 0 601 98 1067 564 1165 1165 21 128 21 4514
0 4642 -75 459 -370 853 -786 1048 -97 45 -201 81 -310 107 -71 17 -199 19
-2360 20 -1815 2 -2300 -1 -2360 -11z m4120 -1805 c147 -11 337 -38 461 -66
l69 -16 0 -199 c0 -186 -1 -200 -17 -195 -45 13 -237 48 -347 62 -167 22 -567
30 -690 15 -355 -45 -487 -171 -503 -481 -12 -227 48 -356 201 -430 43 -21
203 -64 541 -145 264 -63 521 -129 570 -146 346 -121 464 -279 495 -661 12
-140 2 -310 -24 -435 -81 -384 -314 -577 -786 -650 -138 -21 -576 -24 -760 -4
-267 28 -529 77 -632 118 l-38 15 0 204 c0 112 2 204 4 204 3 0 58 -14 123
-30 152 -40 358 -76 548 -96 209 -23 569 -23 691 -1 242 44 342 122 401 312
14 48 18 93 18 225 -1 149 -3 171 -24 223 -12 32 -40 76 -60 97 -71 75 -150
101 -670 225 -262 62 -515 128 -563 145 -265 96 -406 264 -454 542 -22 128
-14 397 15 515 128 511 571 713 1431 653z m-1740 -240 l0 -200 -550 0 -550 0
0 -1445 0 -1445 -215 0 -215 0 0 1445 0 1445 -550 0 -550 0 0 200 0 200 1315
0 1315 0 0 -200z"/>
</g>
</svg>
