<svg xmlns="http://www.w3.org/2000/svg" id="Capa_1" width="512" height="512" enable-background="new 0 0 512 512" viewBox="0 0 512 512"><g><path fill="#323c3c" d="m236 301.425 20 160.664c124.702 0 225.793-35.961 225.793-160.664z"/><path fill="#495959" d="m30.206 301.425c0 124.702 101.091 160.664 225.794 160.664v-160.664z"/><path fill="#2d2d2d" d="m236 237.16 20 96.398c133.066 0 225.794-32.133 225.794-32.133v-64.265z"/><path fill="#323c3c" d="m30.206 237.16v64.265s92.728 32.133 225.794 32.133v-96.398z"/><path fill="#2682ff" d="m256 269.292c133.066 0 225.794-32.133 225.794-32.133l13.218-35.069c-28.521 8.736-136.526 12.201-259.012 12.201z"/><path fill="#6aa9ff" d="m16.988 202.091 13.218 35.069s92.728 32.133 225.794 32.133v-55c-122.485-.001-210.491-3.466-239.012-12.202z"/><path fill="#005fe1" d="m256 49.911-20 103.524 20 80.856c122.485 0 210.491-23.465 239.012-32.201l16.988-45.07s-75.13-107.109-256-107.109z"/><path fill="#2682ff" d="m256 49.911c-180.87 0-256 107.109-256 107.109l16.988 45.071c28.521 8.736 116.526 32.201 239.012 32.201z"/><path fill="#b4d2d7" d="m325.252 213.99-15.863-75.554h-53.389l-20 80.428 20 80.428c21.415 0 41.439-9.536 54.937-26.162s18.716-38.182 14.315-59.14z"/><path fill="#e1ebf0" d="m202.611 138.436-15.863 75.554c-4.4 20.958.817 42.515 14.315 59.141s33.522 26.162 54.937 26.162v-160.857z"/><path fill="#e1ebf0" d="m287.646 254.222c7.776-9.578 10.782-21.995 8.247-34.068l-10.859-51.718h-29.034l-20 50.428 20 50.428c12.336 0 23.871-5.492 31.646-15.07z"/><path fill="#fff5f5" d="m226.966 168.436-10.859 51.718c-2.535 12.073.471 24.491 8.247 34.068 7.775 9.578 19.31 15.07 31.646 15.07v-100.856z"/></g></svg>