<?xml version="1.0" encoding="UTF-8"?>
<svg xmlns="http://www.w3.org/2000/svg" xmlns:xlink="http://www.w3.org/1999/xlink" width="18pt" height="18pt" viewBox="0 0 18 18" version="1.1">
  <g id="surface1">
    <path style=" stroke:none;fill-rule:nonzero;fill:rgb(100%,100%,100%);fill-opacity:1;" d="M 15.59375 14.773438 L 11.835938 10.980469 C 12.574219 10.0625 13.015625 8.894531 13.015625 7.625 C 13.015625 4.652344 10.605469 2.246094 7.632812 2.246094 C 4.65625 2.246094 2.25 4.65625 2.25 7.628906 C 2.25 10.601562 4.65625 13.007812 7.632812 13.007812 C 8.917969 13.007812 10.097656 12.558594 11.027344 11.804688 L 14.753906 15.570312 C 14.867188 15.691406 15.023438 15.75 15.175781 15.75 C 15.316406 15.75 15.460938 15.695312 15.570312 15.59375 C 15.804688 15.371094 15.808594 15.003906 15.59375 14.773438 Z M 7.632812 11.851562 C 6.503906 11.851562 5.441406 11.414062 4.644531 10.613281 C 3.84375 9.816406 3.40625 8.753906 3.40625 7.628906 C 3.40625 6.5 3.84375 5.4375 4.644531 4.644531 C 5.441406 3.84375 6.503906 3.40625 7.632812 3.40625 C 8.761719 3.40625 9.820312 3.84375 10.621094 4.644531 C 11.417969 5.441406 11.859375 6.503906 11.859375 7.628906 C 11.859375 8.757812 11.417969 9.820312 10.621094 10.613281 C 9.820312 11.414062 8.761719 11.851562 7.632812 11.851562 Z M 7.632812 11.851562 " />
  </g>
</svg>
